<!-- Generator: Adobe Illustrator 21.1.0, SVG Export Plug-In  -->
<svg version="1.1"
	 xmlns="http://www.w3.org/2000/svg" xmlns:xlink="http://www.w3.org/1999/xlink" xmlns:a="http://ns.adobe.com/AdobeSVGViewerExtensions/3.0/"
	 x="0px" y="0px" width="13.8px" height="15.6px" viewBox="0 0 13.8 15.6" style="enable-background:new 0 0 13.8 15.6;"
	 xml:space="preserve">
<style type="text/css">
	.st0{fill:#F1F2F2;}
	.st1{fill:#D36E52;}
</style>
<defs>
</defs>
<g>
	<g>
		<g>
			<rect x="1.6" y="2.8" class="st0" width="11" height="8.5"/>
		</g>
		<g>
			<g>
				<path class="st1" d="M8.3,6.5c-0.4,0-0.8,0.4-0.8,0.9s0.4,0.9,0.8,0.9c0.4,0,0.8-0.4,0.8-0.9S8.8,6.5,8.3,6.5z M5.5,6.5
					C5,6.5,4.7,6.9,4.7,7.4S5,8.3,5.5,8.3c0.4,0,0.8-0.4,0.8-0.9C6.3,6.9,5.9,6.5,5.5,6.5z"/>
			</g>
		</g>
		<g>
			<g>
				<path class="st1" d="M12.2,0H1.6C0.7,0,0,0.7,0,1.6v10.5c0,0.9,0.7,1.6,1.6,1.6h8.9l-0.4-1.4l1,0.9l1,0.9l1.7,1.5v-14
					C13.8,0.7,13,0,12.2,0z M9.1,10.2c0,0-0.3-0.3-0.5-0.6c1-0.3,1.4-0.9,1.4-0.9C9.7,8.8,9.4,9,9.1,9.1C8.7,9.3,8.3,9.4,8,9.4
					c-0.8,0.1-1.4,0.1-2,0C5.5,9.3,5.1,9.2,4.8,9.1C4.6,9,4.4,8.9,4.2,8.8c0,0,0,0-0.1,0c0,0,0,0,0,0C4,8.7,3.9,8.6,3.9,8.6
					s0.4,0.6,1.4,0.9C5,9.8,4.7,10.2,4.7,10.2C3,10.1,2.3,9,2.3,9c0-2.5,1.1-4.5,1.1-4.5c1.1-0.8,2.2-0.8,2.2-0.8l0.1,0.1
					c-1.4,0.4-2.1,1-2.1,1s0.2-0.1,0.5-0.2C5,4.2,5.7,4.1,5.9,4C6,4,6,4,6.1,4c0.5-0.1,1-0.1,1.6,0C8.4,4.1,9.2,4.3,10,4.8
					c0,0-0.6-0.6-2-1l0.1-0.1c0,0,1.1,0,2.2,0.8c0,0,1.1,2,1.1,4.5C11.5,9,10.9,10.1,9.1,10.2L9.1,10.2z"/>
			</g>
		</g>
	</g>
</g>
</svg>