<svg version="1.1"
	 xmlns="http://www.w3.org/2000/svg" xmlns:xlink="http://www.w3.org/1999/xlink" xmlns:a="http://ns.adobe.com/AdobeSVGViewerExtensions/3.0/"
	 x="0px" y="0px" width="14.2px" height="14.2px" viewBox="0 0 14.2 14.2" style="enable-background:new 0 0 14.2 14.2;"
	 xml:space="preserve">
<style type="text/css">
	.st0{fill:#D36E52;}
	.st1{fill:#F1F2F2;}
</style>
<defs>
</defs>
<g>
	<g>
		<path class="st0" d="M11.9,14.2H2.2c-1.2,0-2.2-1-2.2-2.2l0-9.7C0,1,1,0,2.2,0l9.7,0c1.2,0,2.2,1,2.2,2.2v9.7
			C14.2,13.2,13.2,14.2,11.9,14.2z"/>
	</g>
	<g>
		<path class="st1" d="M12,4.2c0,0-0.4,0.6-1,1c0.1,2.8-1.9,5.8-5.6,5.8c-1.8,0-3-0.9-3-0.9s1.4,0.3,2.9-0.8C3.9,9.3,3.6,8,3.6,8
			S4,8.1,4.4,8C2.8,7.6,2.9,6,2.9,6s0.4,0.2,0.9,0.2C2.3,5.1,3.2,3.7,3.2,3.7s1.3,1.9,4,2.1c-0.4-2.1,2.1-3.1,3.3-1.8
			c0.7-0.1,1.3-0.5,1.3-0.5s-0.2,0.7-0.9,1.1C11.4,4.5,12,4.2,12,4.2z"/>
	</g>
</g>
</svg>